<?xml version="1.0" encoding="utf-8"?>
<!-- Generator: Adobe Illustrator 16.0.0, SVG Export Plug-In . SVG Version: 6.00 Build 0)  -->
<!DOCTYPE svg PUBLIC "-//W3C//DTD SVG 1.1//EN" "http://www.w3.org/Graphics/SVG/1.1/DTD/svg11.dtd">
<svg version="1.1" id="Layer_1" xmlns="http://www.w3.org/2000/svg" xmlns:xlink="http://www.w3.org/1999/xlink" x="0px" y="0px"
	 width="1117.238px" height="144px" viewBox="0 0 1117.238 144" enable-background="new 0 0 1117.238 144" xml:space="preserve">
<g id="Layer_x0020_1">
	<path fill="#9FC131" d="M75.613,29.683l43.12,0.2l-72,84.435l-43.12-0.2L75.613,29.683L75.613,29.683z M108.705,114.117
		l-3.811,27.075H0.003l3.61-27.075H108.705L108.705,114.117z M122.543,2.808l-3.811,27.075H17.451l3.811-27.075H122.543z"/>
	<polygon id="_x31_" fill="#9FC131" points="180.704,2.808 161.25,141.192 123.545,141.192 142.999,2.808 	"/>
	<path id="_x31_2" fill="#9FC131" d="M325.907,2.808l-17.649,125.95c-0.534,4.278-1.905,7.42-4.111,9.426s-5.448,3.009-9.727,3.009
		h-14.841c-4.011,0-6.886-1.036-8.624-3.108s-3.409-4.98-5.014-8.725l-26.072-58.964c-1.471-3.075-2.741-6.484-3.811-10.228
		c-1.07-3.744-2.005-7.554-2.808-11.432h-2.005c0.134,4.011,0.101,7.989-0.1,11.933s-0.568,7.989-1.103,12.134l-9.827,68.39h-34.897
		l17.649-125.95c0.535-4.278,1.905-7.42,4.111-9.426c2.206-2.005,5.448-3.008,9.727-3.008h14.841c3.877,0,6.686,1.07,8.423,3.209
		c1.738,2.14,3.41,5.014,5.014,8.624l25.471,56.357c1.471,3.342,2.908,6.885,4.312,10.629s2.641,7.889,3.71,12.436h2.206
		c-0.268-4.279-0.368-8.189-0.301-11.733c0.066-3.543,0.368-7.187,0.902-10.93l9.827-68.591L325.907,2.808L325.907,2.808z"/>
	<path id="_x31_23" fill="#9FC131" d="M409.74,0c5.348,0,10.563,0.201,15.643,0.602c5.081,0.401,10.095,1.003,15.042,1.805
		s9.693,1.872,14.239,3.209l-4.412,27.075c-4.68-0.134-9.292-0.234-13.838-0.301s-9.092-0.134-13.638-0.201s-9.493-0.1-14.842-0.1
		c-5.214,0-9.626,0.635-13.236,1.905c-3.61,1.27-6.618,3.443-9.025,6.518c-2.406,3.075-4.412,7.287-6.017,12.635
		s-2.941,12.101-4.011,20.257c-1.471,10.161-2.039,18.017-1.705,23.565c0.334,5.548,1.705,9.393,4.111,11.532
		c2.407,2.139,6.084,3.208,11.03,3.208c4.413,0,8.057-0.601,10.931-1.805c2.875-1.203,5.448-2.708,7.722-4.513
		c2.272-1.805,4.412-3.442,6.418-4.914l6.017,15.845c-1.872,2.407-4.278,5.147-7.22,8.223c-2.942,3.075-6.385,6.117-10.329,9.126
		c-3.944,3.008-8.457,5.481-13.538,7.42c-5.08,1.939-10.763,2.908-17.047,2.908c-9.226,0-16.914-2.34-23.064-7.02
		c-6.149-4.68-10.395-12.4-12.735-23.164c-2.339-10.764-2.306-25.17,0.101-43.22c2.006-14.306,4.847-26.072,8.523-35.298
		c3.678-9.226,8.457-16.412,14.34-21.56s12.97-8.725,21.26-10.73C388.748,1.003,398.509,0,409.74,0L409.74,0z M453.261,61.371
		l-11.231,79.822h-27.477l-1.805-21.46l-2.607-6.618l7.221-51.744H453.261L453.261,61.371z"/>
	<path id="_x31_234" fill="#9FC131" d="M553.74,2.808c2.941,0,5.582,1.003,7.922,3.008c2.34,2.006,3.71,4.479,4.111,7.421
		l19.654,127.956h-37.705l-10.027-95.866c-0.268-2.541-0.435-5.014-0.502-7.42c-0.066-2.407-0.1-4.814-0.1-7.22h-5.616
		c-0.534,2.005-1.136,4.278-1.805,6.819s-1.537,5.014-2.607,7.42l-37.905,96.268h-39.108l55.755-129.359
		c1.069-2.941,2.774-5.181,5.114-6.719c2.34-1.537,5.047-2.306,8.123-2.306L553.74,2.808L553.74,2.808z M562.163,80.824
		l-3.209,27.878h-72.2l3.409-27.878H562.163L562.163,80.824z"/>
	<path id="_x31_2345" fill="#9FC131" d="M662.843,0c7.487,0.134,15.41,0.669,23.767,1.604c8.356,0.936,16.278,2.607,23.766,5.014
		l-3.209,24.268c-4.145-0.134-8.824-0.234-14.039-0.301c-5.214-0.067-10.563-0.134-16.044-0.2
		c-5.482-0.067-10.964-0.101-16.446-0.101c-2.808,0-5.248,0.101-7.32,0.301c-2.072,0.201-3.811,0.602-5.215,1.203
		c-1.403,0.602-2.507,1.504-3.309,2.708c-0.803,1.203-1.404,2.808-1.806,4.813c-0.133,1.738,0,3.276,0.401,4.613
		s1.371,2.541,2.908,3.61c1.538,1.069,3.777,2.34,6.719,3.811l24.066,10.83c7.488,3.343,13.137,6.953,16.947,10.83
		c3.811,3.878,6.284,8.356,7.421,13.438s1.304,11.03,0.501,17.849c-1.337,10.43-3.978,18.519-7.922,24.268
		c-3.944,5.75-9.794,9.761-17.549,12.033c-7.755,2.273-18.05,3.41-30.886,3.41c-5.481,0-12.835-0.435-22.061-1.304
		s-18.986-2.573-29.281-5.114l3.609-26.273c7.755,0.135,14.741,0.302,20.958,0.502c6.218,0.201,11.466,0.334,15.744,0.401
		c4.278,0.066,7.354,0.101,9.226,0.101c4.947,0,8.857-0.268,11.732-0.803s5.014-1.504,6.418-2.908s2.307-3.309,2.708-5.716
		c0.4-2.14,0.4-3.811,0-5.015c-0.401-1.203-1.271-2.271-2.607-3.208s-3.209-1.938-5.616-3.009l-25.871-11.832
		c-7.354-3.61-12.937-7.488-16.747-11.633c-3.811-4.145-6.251-8.724-7.32-13.738c-1.069-5.014-1.27-10.462-0.602-16.345
		c0.936-7.622,2.774-13.905,5.516-18.853c2.74-4.947,6.417-8.791,11.03-11.532c4.612-2.741,10.296-4.713,17.048-5.917
		C646.23,0.602,654.019,0,662.843,0L662.843,0z"/>
	<path id="_x31_23456" fill="#9FC131" d="M772.146,2.808l-19.453,138.384h-37.705L734.441,2.808H772.146z M807.244,53.95
		l-3.812,27.476h-43.721l3.609-27.476H807.244z M849.963,2.808l-19.455,138.384h-37.704L812.258,2.808H849.963z"/>
	<path id="_x31_234567" fill="#9FC131" d="M928.778,0c14.573,0,26.339,2.206,35.298,6.618c8.958,4.413,15.041,11.9,18.25,22.463
		c3.209,10.563,3.543,25.337,1.003,44.323c-1.872,14.039-4.546,25.638-8.021,34.797c-3.477,9.158-7.923,16.345-13.338,21.559
		c-5.415,5.215-12.066,8.893-19.955,11.031S924.834,144,914.138,144c-15.108,0-27.075-2.206-35.9-6.619
		c-8.824-4.412-14.674-11.933-17.549-22.563c-2.874-10.629-3.041-25.369-0.501-44.222c2.006-13.772,4.713-25.237,8.123-34.396
		c3.409-9.159,7.787-16.379,13.136-21.661c5.349-5.281,11.899-9.025,19.655-11.231C908.855,1.103,918.082,0,928.778,0L928.778,0z
		 M928.176,28.68c-5.883,0-10.596,1.204-14.139,3.61c-3.543,2.407-6.352,6.819-8.424,13.237c-2.072,6.418-4.044,15.71-5.916,27.878
		c-1.738,11.364-2.44,20.055-2.105,26.072c0.334,6.017,1.905,10.161,4.713,12.435c2.808,2.272,7.086,3.409,12.835,3.409
		c6.017,0,10.764-1.203,14.24-3.61c3.476-2.406,6.284-6.853,8.423-13.337c2.14-6.484,4.145-15.743,6.017-27.777
		c1.738-11.365,2.44-20.056,2.106-26.072c-0.334-6.017-1.939-10.162-4.813-12.435C938.237,29.816,933.926,28.68,928.176,28.68
		L928.176,28.68z"/>
	<path id="_x31_2345678" fill="#9FC131" d="M1066.561,0.802c13.371,0,23.934,1.438,31.688,4.312
		c7.756,2.875,13.004,7.788,15.744,14.741c2.741,6.952,3.242,16.512,1.504,28.679c-1.604,11.9-4.345,21.059-8.223,27.477
		c-3.877,6.417-9.426,10.863-16.646,13.336c-7.221,2.475-16.714,3.711-28.479,3.711c-6.418,0-12.769-0.334-19.053-1.003
		s-12.101-1.505-17.448-2.507c-5.349-1.003-9.895-2.072-13.639-3.209c-3.743-1.137-6.351-2.173-7.821-3.109l1.203-17.247
		c8.691,0,17.649,0,26.875,0s18.117,0,26.674,0c4.412,0,7.855-0.468,10.329-1.404c2.474-0.936,4.412-2.841,5.815-5.715
		c1.404-2.875,2.508-7.254,3.31-13.137c0.669-4.546,0.735-8.089,0.2-10.63c-0.534-2.54-1.838-4.345-3.91-5.415
		c-2.072-1.069-5.114-1.604-9.126-1.604c-13.103,0-24.267,0.1-33.493,0.301c-9.226,0.2-15.442,0.435-18.651,0.702l-0.602-26.273
		c5.749-0.668,11.131-1.136,16.145-1.404c5.015-0.268,10.463-0.435,16.346-0.501S1058.271,0.802,1066.561,0.802L1066.561,0.802z
		 M1050.315,2.808l-19.454,138.384h-37.504l19.454-138.384H1050.315L1050.315,2.808z"/>
</g>
</svg>
